<svg width="24" height="24" viewBox="0 0 24 24" fill="none" xmlns="http://www.w3.org/2000/svg">
<path fill-rule="evenodd" clip-rule="evenodd" d="M24 0H0V24H24V0ZM1.50229 12C1.50229 6.20156 6.20385 1.5 12.0023 1.5C17.8007 1.5 22.4976 6.20625 22.4976 12.0047C22.4976 17.8031 17.796 22.5047 11.9976 22.5047C10.9899 22.5038 9.98755 22.3586 9.02104 22.0734C9.41948 21.4406 9.85541 20.6344 10.0757 19.8234C10.207 19.3547 10.8164 16.9359 10.8164 16.9359C11.182 17.6297 12.246 18.2438 13.3804 18.2438C16.7554 18.2438 19.0476 15.1687 19.0476 11.0484C19.0476 7.93594 16.4085 5.03438 12.4007 5.03438C7.41323 5.03438 4.89604 8.61094 4.89604 11.5922C4.89604 13.4016 5.58041 15.0047 7.0476 15.6047C7.28666 15.7031 7.50229 15.6094 7.5726 15.3422C7.60031 15.2414 7.64563 15.0608 7.68962 14.8854C7.72749 14.7344 7.76438 14.5873 7.78823 14.4984C7.85854 14.2359 7.83041 14.1422 7.63823 13.9125C7.21635 13.4156 6.94448 12.7687 6.94448 11.8547C6.94448 9.20156 8.93198 6.825 12.1148 6.825C14.932 6.825 16.4835 8.54531 16.4835 10.8469C16.4835 13.875 15.1429 16.4297 13.1554 16.4297C12.0539 16.4297 11.2335 15.525 11.496 14.4094C11.6105 13.9243 11.7648 13.4255 11.9147 12.9409C12.1761 12.0956 12.4242 11.2936 12.4242 10.6828C12.4242 9.825 11.9648 9.10781 11.0085 9.10781C9.88354 9.10781 8.98354 10.2703 8.98354 11.8266C8.98354 12.8156 9.32104 13.4859 9.32104 13.4859C9.32104 13.4859 8.1726 18.3562 7.97104 19.2094C7.78354 20.0062 7.7601 20.8875 7.78823 21.6188C4.08979 19.9922 1.50229 16.2984 1.50229 12Z" fill="white"/>
</svg>
