<svg width="24" height="24" viewBox="0 0 24 24" fill="none" xmlns="http://www.w3.org/2000/svg">
<path fill-rule="evenodd" clip-rule="evenodd" d="M24 0H0V24H24V0ZM20.5992 5.85001C21.513 5.74116 22.406 5.49955 23.25 5.13282C22.6283 6.04787 21.8485 6.84472 20.947 7.48595C20.9564 7.67813 20.9616 7.87501 20.9616 8.07188C20.9616 14.0766 16.3172 21 7.81594 21C5.31255 21.0068 2.85993 20.2942 0.75 18.9469C1.11561 18.9901 1.48341 19.012 1.85156 19.0125C3.9256 19.0175 5.94252 18.3333 7.58531 17.0672C5.56359 17.0297 3.85687 15.7172 3.27047 13.9125C3.5562 13.9691 3.84683 13.9974 4.13812 13.9969C4.54864 13.9968 4.9574 13.9433 5.35406 13.8375C3.24469 13.4203 1.65094 11.5875 1.65094 9.38438V9.32813C2.29481 9.68331 3.01487 9.87788 3.75 9.89532C2.50922 9.0797 1.6875 7.68751 1.6875 6.11251C1.6885 5.30909 1.90527 4.52069 2.31516 3.8297C3.48351 5.23977 4.93333 6.39044 6.57187 7.2081C8.2104 8.02575 10.0016 8.49238 11.8308 8.57813C11.7499 8.23881 11.7099 7.89102 11.7117 7.5422C11.7117 5.03438 13.7761 3.00001 16.327 3.00001C16.9571 2.99884 17.5808 3.12581 18.1603 3.3732C18.7397 3.62059 19.2629 3.98323 19.6978 4.43907C20.7307 4.24092 21.7224 3.86841 22.6303 3.33751C22.2817 4.39434 21.5595 5.28769 20.5992 5.85001Z" fill="#FCFAF8"/>
</svg>
