<svg width="82" height="18" viewBox="0 0 82 18" fill="none" xmlns="http://www.w3.org/2000/svg">
<path d="M0.782539 17V5.78H3.81854V17H0.782539ZM2.30054 4.438C1.78721 4.438 1.33987 4.25467 0.958539 3.888C0.591872 3.50667 0.408539 3.05933 0.408539 2.546C0.408539 2.03267 0.591872 1.59267 0.958539 1.226C1.33987 0.844666 1.78721 0.653999 2.30054 0.653999C2.81387 0.653999 3.25387 0.844666 3.62054 1.226C4.00187 1.59267 4.19254 2.03267 4.19254 2.546C4.19254 3.05933 4.00187 3.50667 3.62054 3.888C3.25387 4.25467 2.81387 4.438 2.30054 4.438ZM6.64777 17V10.554C6.64777 9.63 6.86044 8.78667 7.28577 8.024C7.72577 7.26133 8.35644 6.65267 9.17777 6.198C9.99911 5.74333 10.9818 5.516 12.1258 5.516C13.2844 5.516 14.2671 5.74333 15.0738 6.198C15.8951 6.65267 16.5184 7.26133 16.9438 8.024C17.3838 8.78667 17.6038 9.63 17.6038 10.554V17H14.5898V10.554C14.5898 9.86467 14.3478 9.28533 13.8638 8.816C13.3944 8.332 12.8151 8.09 12.1258 8.09C11.4511 8.09 10.8718 8.332 10.3878 8.816C9.90377 9.28533 9.66177 9.86467 9.66177 10.554V17H6.64777ZM40.8698 17.264C39.7111 17.264 38.6771 17.0073 37.7678 16.494C36.8585 15.966 36.1398 15.262 35.6118 14.382C35.0838 13.4873 34.8198 12.49 34.8198 11.39C34.8198 10.29 35.0838 9.3 35.6118 8.42C36.1398 7.52533 36.8585 6.82133 37.7678 6.308C38.6771 5.78 39.7111 5.516 40.8698 5.516C42.0285 5.516 43.0625 5.78 43.9718 6.308C44.8811 6.82133 45.5998 7.52533 46.1278 8.42C46.6558 9.3 46.9198 10.29 46.9198 11.39C46.9198 12.49 46.6558 13.4873 46.1278 14.382C45.5998 15.262 44.8811 15.966 43.9718 16.494C43.0625 17.0073 42.0285 17.264 40.8698 17.264ZM40.8698 14.69C41.7938 14.69 42.5198 14.3747 43.0478 13.744C43.5905 13.0987 43.8618 12.314 43.8618 11.39C43.8618 10.466 43.5905 9.68867 43.0478 9.058C42.5198 8.41267 41.7938 8.09 40.8698 8.09C39.9458 8.09 39.2125 8.41267 38.6698 9.058C38.1418 9.68867 37.8778 10.466 37.8778 11.39C37.8778 12.314 38.1418 13.0987 38.6698 13.744C39.2125 14.3747 39.9458 14.69 40.8698 14.69ZM54.5124 17.264C53.3537 17.264 52.3197 17.0073 51.4104 16.494C50.501 15.966 49.7824 15.262 49.2544 14.382C48.7264 13.4873 48.4624 12.49 48.4624 11.39C48.4624 10.29 48.7264 9.3 49.2544 8.42C49.7824 7.52533 50.501 6.82133 51.4104 6.308C52.3197 5.78 53.3537 5.516 54.5124 5.516C55.671 5.516 56.7051 5.78 57.6144 6.308C58.5237 6.82133 59.2424 7.52533 59.7704 8.42C60.2984 9.3 60.5624 10.29 60.5624 11.39C60.5624 12.49 60.2984 13.4873 59.7704 14.382C59.2424 15.262 58.5237 15.966 57.6144 16.494C56.7051 17.0073 55.671 17.264 54.5124 17.264ZM54.5124 14.69C55.4364 14.69 56.1624 14.3747 56.6904 13.744C57.233 13.0987 57.5044 12.314 57.5044 11.39C57.5044 10.466 57.233 9.68867 56.6904 9.058C56.1624 8.41267 55.4364 8.09 54.5124 8.09C53.5884 8.09 52.855 8.41267 52.3124 9.058C51.7844 9.68867 51.5204 10.466 51.5204 11.39C51.5204 12.314 51.7844 13.0987 52.3124 13.744C52.855 14.3747 53.5884 14.69 54.5124 14.69ZM62.765 17V10.334C62.765 9.454 62.9776 8.64733 63.403 7.914C63.8283 7.18067 64.437 6.60133 65.229 6.176C66.0356 5.736 67.0036 5.516 68.133 5.516C68.9396 5.516 69.6656 5.65533 70.311 5.934C70.9563 6.21267 71.5063 6.594 71.961 7.078H71.983C72.4523 6.594 73.0096 6.21267 73.655 5.934C74.315 5.65533 75.0483 5.516 75.855 5.516C76.9843 5.516 77.945 5.736 78.737 6.176C79.5436 6.60133 80.1596 7.18067 80.585 7.914C81.0103 8.64733 81.223 9.454 81.223 10.334V17H78.209V10.334C78.209 9.718 77.9743 9.19 77.505 8.75C77.0503 8.31 76.5003 8.09 75.855 8.09C75.2096 8.09 74.6523 8.31 74.183 8.75C73.7283 9.19 73.501 9.718 73.501 10.334V17H70.487V10.334C70.487 9.718 70.2523 9.19 69.783 8.75C69.3283 8.31 68.7783 8.09 68.133 8.09C67.4876 8.09 66.9303 8.31 66.461 8.75C66.0063 9.19 65.779 9.718 65.779 10.334V17H62.765Z" fill="#454646"/>
<path d="M20.5722 17V1.6H27.4582C28.4702 1.6 29.3869 1.82733 30.2082 2.282C31.0442 2.722 31.7042 3.338 32.1882 4.13C32.6869 4.922 32.9362 5.846 32.9362 6.902C32.9362 7.92867 32.6942 8.838 32.2102 9.63C31.7262 10.4073 31.0882 11.0233 30.2962 11.478L31.7042 13.942C31.8216 14.1327 31.9976 14.228 32.2322 14.228H33.7282V17H31.7482C31.1322 17 30.5676 16.846 30.0542 16.538C29.5556 16.23 29.1596 15.8267 28.8662 15.328L27.1282 12.204H23.7182V17H20.5722ZM23.7182 9.432H27.0842C27.8322 9.432 28.4702 9.212 28.9982 8.772C29.5262 8.332 29.7902 7.70867 29.7902 6.902C29.7902 6.11 29.5189 5.494 28.9762 5.054C28.4482 4.59933 27.8176 4.372 27.0842 4.372H23.7182V9.432Z" fill="#E7B097"/>
</svg>
